{"glyphs":{"\u0000":{"ha":0,"x_min":0,"x_max":0,"o":""},"\n":{"ha":0,"x_min":0,"x_max":0,"o":""},"\r":{"ha":0,"x_min":0,"x_max":0,"o":""}," ":{"ha":564,"x_min":0,"x_max":0,"o":""},"A":{"ha":1201,"x_min":0,"x_max":0,"o":"m 863 0 l 1132 0 l 711 902 b 601 972 691 945 648 972 b 490 902 553 972 510 945 l 69 0 l 338 0 l 394 122 l 807 122 z m 508 365 l 601 563 l 693 365 z "},"B":{"ha":1113,"x_min":0,"x_max":0,"o":"m 981 525 l 981 729 b 738 972 981 863 872 972 l 191 972 b 69 851 124 972 69 918 l 69 122 b 191 0 69 54 124 0 l 799 0 b 1042 243 933 0 1042 109 l 1042 365 b 981 525 1042 424 1020 481 z m 313 729 l 738 729 l 738 608 l 313 608 z m 799 243 l 313 243 l 313 365 l 799 365 z "},"C":{"ha":1111,"x_min":0,"x_max":0,"o":"m 677 243 l 434 243 b 313 365 367 243 313 297 l 313 608 b 434 729 313 675 367 729 l 677 729 b 799 608 744 729 799 675 l 1042 608 b 677 972 1041 809 878 972 l 434 972 b 69 608 233 972 70 809 l 69 365 b 434 0 70 163 233 0 l 677 0 b 1042 365 878 0 1041 163 l 799 365 b 677 243 799 297 744 243 z "},"D":{"ha":1111,"x_min":0,"x_max":0,"o":"m 556 972 l 69 972 l 69 0 l 556 0 b 1042 486 824 0 1041 218 b 556 972 1041 754 824 972 z m 556 243 l 313 243 l 313 729 l 556 729 b 799 486 690 729 798 620 b 556 243 798 352 690 243 z "},"E":{"ha":990,"x_min":0,"x_max":0,"o":"m 920 729 l 920 972 l 252 972 b 69 790 151 972 70 891 l 69 0 l 920 0 l 920 243 l 313 243 l 313 365 l 677 365 l 677 608 l 313 608 l 313 729 z "},"F":{"ha":990,"x_min":0,"x_max":0,"o":"m 920 729 l 920 972 l 252 972 b 69 790 151 972 70 891 l 69 0 l 313 0 l 313 365 l 677 365 l 677 608 l 313 608 l 313 729 z "},"G":{"ha":1111,"x_min":0,"x_max":0,"o":"m 556 365 l 799 365 l 799 243 l 434 243 b 313 365 367 243 313 297 l 313 608 b 434 729 313 675 367 729 l 677 729 b 799 668 799 729 799 708 l 1042 668 b 677 972 1042 782 994 972 l 434 972 b 69 608 233 972 70 809 l 69 365 b 434 0 70 163 233 0 l 799 0 b 1042 243 933 0 1042 109 l 1042 608 l 556 608 z "},"H":{"ha":1111,"x_min":0,"x_max":0,"o":"m 799 972 l 799 608 l 313 608 l 313 972 l 69 972 l 69 0 l 313 0 l 313 365 l 799 365 l 799 0 l 1042 0 l 1042 972 z "},"I":{"ha":382,"x_min":0,"x_max":0,"o":"m 313 0 l 313 972 l 69 972 l 69 0 z "},"J":{"ha":990,"x_min":0,"x_max":0,"o":"m 677 972 l 677 365 b 556 243 677 297 623 243 l 373 243 b 313 304 340 243 313 270 l 69 304 b 373 0 70 136 206 0 l 556 0 b 920 365 757 0 920 163 l 920 972 z "},"K":{"ha":1165,"x_min":0,"x_max":0,"o":"m 606 523 l 1089 972 l 732 972 l 313 583 l 313 972 l 69 972 l 69 0 l 313 0 l 313 251 l 428 358 l 762 0 l 1095 0 z "},"L":{"ha":868,"x_min":0,"x_max":0,"o":"m 313 243 l 313 972 l 69 972 l 69 122 b 191 0 69 54 124 0 l 799 0 l 799 243 z "},"M":{"ha":1356,"x_min":0,"x_max":0,"o":"m 1198 967 b 1062 918 1147 983 1092 963 l 677 341 l 292 918 b 156 967 262 963 207 983 b 69 851 105 951 69 904 l 69 0 l 313 0 l 313 449 l 576 54 b 677 0 599 20 636 0 b 778 54 718 0 756 20 l 1042 449 l 1042 0 l 1285 0 l 1285 851 b 1198 967 1285 904 1250 951 z "},"N":{"ha":1113,"x_min":0,"x_max":0,"o":"m 799 972 l 799 415 l 277 937 b 144 963 242 972 190 982 b 69 851 99 944 69 900 l 69 0 l 313 0 l 313 557 l 834 36 b 920 0 857 13 888 0 b 967 9 936 0 952 3 b 1042 121 1012 28 1042 72 l 1042 972 z "},"O":{"ha":1111,"x_min":0,"x_max":0,"o":"m 677 972 l 434 972 b 69 608 233 972 70 809 l 69 365 b 434 0 70 163 233 0 l 677 0 b 1042 365 878 0 1041 163 l 1042 608 b 677 972 1041 809 878 972 z m 799 365 b 677 243 799 297 744 243 l 434 243 b 312 365 367 243 312 297 l 312 608 b 434 729 312 675 367 729 l 677 729 b 799 608 744 729 799 675 z "},"P":{"ha":1111,"x_min":0,"x_max":0,"o":"m 677 972 l 69 972 l 69 0 l 313 0 l 313 243 l 677 243 b 1042 608 878 243 1041 406 b 677 972 1041 809 878 972 z m 677 486 l 313 486 l 313 729 l 677 729 b 799 608 744 729 799 675 b 677 486 799 541 744 486 z "},"Q":{"ha":1111,"x_min":0,"x_max":0,"o":"m 1042 365 l 1042 608 b 677 972 1041 809 878 972 l 434 972 b 69 608 233 972 70 809 l 69 365 b 434 0 70 163 233 0 l 618 0 l 722 -122 l 1042 -122 l 883 64 b 1042 365 982 132 1042 244 z m 313 365 l 313 608 b 434 729 313 675 367 729 l 677 729 b 799 608 744 729 799 675 l 799 365 b 677 243 799 297 744 243 l 434 243 b 313 365 367 243 313 298 z "},"R":{"ha":1111,"x_min":0,"x_max":0,"o":"m 1042 0 l 884 308 b 1042 608 983 376 1042 488 b 677 972 1041 809 878 972 l 69 972 l 69 0 l 313 0 l 313 243 l 644 243 l 769 0 z m 313 729 l 677 729 b 799 608 744 729 799 675 b 677 486 799 541 744 486 l 313 486 z "},"S":{"ha":1111,"x_min":0,"x_max":0,"o":"m 373 729 l 1042 729 l 1042 972 l 373 972 b 69 668 206 972 70 836 b 373 365 70 501 206 365 l 738 365 b 799 304 771 365 799 337 b 738 243 799 270 771 243 l 69 243 l 69 0 l 738 0 b 1042 304 906 0 1041 136 b 738 608 1041 472 906 607 l 373 608 b 313 668 340 608 313 635 b 373 729 313 702 340 729 z "},"T":{"ha":1111,"x_min":0,"x_max":0,"o":"m 1042 972 l 69 972 l 69 729 l 434 729 l 434 0 l 677 0 l 677 729 l 1042 729 z "},"U":{"ha":1111,"x_min":0,"x_max":0,"o":"m 799 972 l 799 365 b 677 243 799 297 744 243 l 434 243 b 313 365 367 243 313 297 l 313 972 l 69 972 l 69 365 b 434 0 70 163 233 0 l 677 0 b 1042 365 878 0 1041 163 l 1042 972 z "},"V":{"ha":1201,"x_min":0,"x_max":0,"o":"m 863 972 l 601 409 l 338 972 l 69 972 l 490 70 b 601 0 510 27 553 0 b 711 70 648 0 691 27 l 1132 972 z "},"W":{"ha":1994,"x_min":0,"x_max":0,"o":"m 1656 972 l 1394 409 l 1188 850 b 998 972 1153 924 1079 971 b 807 850 916 972 841 925 l 600 409 l 338 972 l 69 972 l 490 70 b 633 4 516 16 576 -12 b 712 74 669 15 697 40 l 997 685 l 1283 70 b 1393 0 1303 27 1346 0 b 1504 70 1441 0 1484 27 l 1925 972 z "},"X":{"ha":1228,"x_min":0,"x_max":0,"o":"m 1158 972 l 847 972 l 614 681 l 381 972 l 69 972 l 458 486 l 69 0 l 381 0 l 614 292 l 847 0 l 1158 0 l 769 486 z "},"Y":{"ha":1229,"x_min":0,"x_max":0,"o":"m 847 972 l 614 681 l 381 972 l 69 972 l 492 443 l 492 0 l 735 0 l 735 443 l 1158 972 z "},"Z":{"ha":1113,"x_min":0,"x_max":0,"o":"m 484 243 l 1006 765 b 1033 897 1041 800 1051 852 b 920 972 1014 943 969 972 l 69 972 l 69 729 l 627 729 l 105 207 b 79 75 70 173 60 120 b 191 0 98 30 142 0 l 1042 0 l 1042 243 z "},"a":{"ha":1201,"x_min":0,"x_max":0,"o":"m 863 0 l 1132 0 l 711 902 b 601 972 691 945 648 972 b 490 902 553 972 510 945 l 69 0 l 338 0 l 394 122 l 807 122 z m 508 365 l 601 563 l 693 365 z "},"b":{"ha":1113,"x_min":0,"x_max":0,"o":"m 981 525 l 981 729 b 738 972 981 863 872 972 l 191 972 b 69 851 124 972 69 918 l 69 122 b 191 0 69 54 124 0 l 799 0 b 1042 243 933 0 1042 109 l 1042 365 b 981 525 1042 424 1020 481 z m 313 729 l 738 729 l 738 608 l 313 608 z m 799 243 l 313 243 l 313 365 l 799 365 z "},"c":{"ha":1111,"x_min":0,"x_max":0,"o":"m 677 243 l 434 243 b 313 365 367 243 313 297 l 313 608 b 434 729 313 675 367 729 l 677 729 b 799 608 744 729 799 675 l 1042 608 b 677 972 1041 809 878 972 l 434 972 b 69 608 233 972 70 809 l 69 365 b 434 0 70 163 233 0 l 677 0 b 1042 365 878 0 1041 163 l 799 365 b 677 243 799 297 744 243 z "},"d":{"ha":1111,"x_min":0,"x_max":0,"o":"m 556 972 l 69 972 l 69 0 l 556 0 b 1042 486 824 0 1041 218 b 556 972 1041 754 824 972 z m 556 243 l 313 243 l 313 729 l 556 729 b 799 486 690 729 798 620 b 556 243 798 352 690 243 z "},"e":{"ha":990,"x_min":0,"x_max":0,"o":"m 920 729 l 920 972 l 252 972 b 69 790 151 972 70 891 l 69 0 l 920 0 l 920 243 l 313 243 l 313 365 l 677 365 l 677 608 l 313 608 l 313 729 z "},"f":{"ha":990,"x_min":0,"x_max":0,"o":"m 920 729 l 920 972 l 252 972 b 69 790 151 972 70 891 l 69 0 l 313 0 l 313 365 l 677 365 l 677 608 l 313 608 l 313 729 z "},"g":{"ha":1111,"x_min":0,"x_max":0,"o":"m 556 365 l 799 365 l 799 243 l 434 243 b 313 365 367 243 313 297 l 313 608 b 434 729 313 675 367 729 l 677 729 b 799 668 799 729 799 708 l 1042 668 b 677 972 1042 782 994 972 l 434 972 b 69 608 233 972 70 809 l 69 365 b 434 0 70 163 233 0 l 799 0 b 1042 243 933 0 1042 109 l 1042 608 l 556 608 z "},"h":{"ha":1111,"x_min":0,"x_max":0,"o":"m 799 972 l 799 608 l 313 608 l 313 972 l 69 972 l 69 0 l 313 0 l 313 365 l 799 365 l 799 0 l 1042 0 l 1042 972 z "},"i":{"ha":382,"x_min":0,"x_max":0,"o":"m 313 0 l 313 972 l 69 972 l 69 0 z "},"j":{"ha":990,"x_min":0,"x_max":0,"o":"m 677 972 l 677 365 b 556 243 677 297 623 243 l 373 243 b 313 304 340 243 313 270 l 69 304 b 373 0 70 136 206 0 l 556 0 b 920 365 757 0 920 163 l 920 972 z "},"k":{"ha":1165,"x_min":0,"x_max":0,"o":"m 606 523 l 1089 972 l 732 972 l 313 583 l 313 972 l 69 972 l 69 0 l 313 0 l 313 251 l 428 358 l 762 0 l 1095 0 z "},"l":{"ha":868,"x_min":0,"x_max":0,"o":"m 313 243 l 313 972 l 69 972 l 69 122 b 191 0 69 54 124 0 l 799 0 l 799 243 z "},"m":{"ha":1356,"x_min":0,"x_max":0,"o":"m 1198 967 b 1062 918 1147 983 1092 963 l 677 341 l 292 918 b 156 967 262 963 207 983 b 69 851 105 951 69 904 l 69 0 l 313 0 l 313 449 l 576 54 b 677 0 599 20 636 0 b 778 54 718 0 756 20 l 1042 449 l 1042 0 l 1285 0 l 1285 851 b 1198 967 1285 904 1250 951 z "},"n":{"ha":1113,"x_min":0,"x_max":0,"o":"m 799 972 l 799 415 l 277 937 b 144 963 242 972 190 982 b 69 851 99 944 69 900 l 69 0 l 313 0 l 313 557 l 834 36 b 920 0 857 13 888 0 b 967 9 936 0 952 3 b 1042 121 1012 28 1042 72 l 1042 972 z "},"o":{"ha":1111,"x_min":0,"x_max":0,"o":"m 677 972 l 434 972 b 69 608 233 972 70 809 l 69 365 b 434 0 70 163 233 0 l 677 0 b 1042 365 878 0 1041 163 l 1042 608 b 677 972 1041 809 878 972 z m 799 365 b 677 243 799 297 744 243 l 434 243 b 312 365 367 243 312 297 l 312 608 b 434 729 312 675 367 729 l 677 729 b 799 608 744 729 799 675 z "},"p":{"ha":1111,"x_min":0,"x_max":0,"o":"m 677 972 l 69 972 l 69 0 l 313 0 l 313 243 l 677 243 b 1042 608 878 243 1041 406 b 677 972 1041 809 878 972 z m 677 486 l 313 486 l 313 729 l 677 729 b 799 608 744 729 799 675 b 677 486 799 541 744 486 z "},"q":{"ha":1111,"x_min":0,"x_max":0,"o":"m 1042 365 l 1042 608 b 677 972 1041 809 878 972 l 434 972 b 69 608 233 972 70 809 l 69 365 b 434 0 70 163 233 0 l 618 0 l 722 -122 l 1042 -122 l 883 64 b 1042 365 982 132 1042 244 z m 313 365 l 313 608 b 434 729 313 675 367 729 l 677 729 b 799 608 744 729 799 675 l 799 365 b 677 243 799 297 744 243 l 434 243 b 313 365 367 243 313 298 z "},"r":{"ha":1111,"x_min":0,"x_max":0,"o":"m 1042 0 l 884 308 b 1042 608 983 376 1042 488 b 677 972 1041 809 878 972 l 69 972 l 69 0 l 313 0 l 313 243 l 644 243 l 769 0 z m 313 729 l 677 729 b 799 608 744 729 799 675 b 677 486 799 541 744 486 l 313 486 z "},"s":{"ha":1111,"x_min":0,"x_max":0,"o":"m 373 729 l 1042 729 l 1042 972 l 373 972 b 69 668 206 972 70 836 b 373 365 70 501 206 365 l 738 365 b 799 304 771 365 799 337 b 738 243 799 270 771 243 l 69 243 l 69 0 l 738 0 b 1042 304 906 0 1041 136 b 738 608 1041 472 906 607 l 373 608 b 313 668 340 608 313 635 b 373 729 313 702 340 729 z "},"t":{"ha":1111,"x_min":0,"x_max":0,"o":"m 1042 972 l 69 972 l 69 729 l 434 729 l 434 0 l 677 0 l 677 729 l 1042 729 z "},"u":{"ha":1111,"x_min":0,"x_max":0,"o":"m 799 972 l 799 365 b 677 243 799 297 744 243 l 434 243 b 313 365 367 243 313 297 l 313 972 l 69 972 l 69 365 b 434 0 70 163 233 0 l 677 0 b 1042 365 878 0 1041 163 l 1042 972 z "},"v":{"ha":1201,"x_min":0,"x_max":0,"o":"m 863 972 l 601 409 l 338 972 l 69 972 l 490 70 b 601 0 510 27 553 0 b 711 70 648 0 691 27 l 1132 972 z "},"w":{"ha":1994,"x_min":0,"x_max":0,"o":"m 1656 972 l 1394 409 l 1188 850 b 998 972 1153 924 1079 971 b 807 850 916 972 841 925 l 600 409 l 338 972 l 69 972 l 490 70 b 633 4 516 16 576 -12 b 712 74 669 15 697 40 l 997 685 l 1283 70 b 1393 0 1303 27 1346 0 b 1504 70 1441 0 1484 27 l 1925 972 z "},"x":{"ha":1228,"x_min":0,"x_max":0,"o":"m 1158 972 l 847 972 l 614 681 l 381 972 l 69 972 l 458 486 l 69 0 l 381 0 l 614 292 l 847 0 l 1158 0 l 769 486 z "},"y":{"ha":1229,"x_min":0,"x_max":0,"o":"m 847 972 l 614 681 l 381 972 l 69 972 l 492 443 l 492 0 l 735 0 l 735 443 l 1158 972 z "},"z":{"ha":1113,"x_min":0,"x_max":0,"o":"m 484 243 l 1006 765 b 1033 897 1041 800 1051 852 b 920 972 1014 943 969 972 l 69 972 l 69 729 l 627 729 l 105 207 b 79 75 70 173 60 120 b 191 0 98 30 142 0 l 1042 0 l 1042 243 z "}," ":{"ha":564,"x_min":0,"x_max":0,"o":""},"­":{"ha":0,"x_min":0,"x_max":0,"o":""}}}
